<?xml version="1.0" encoding="UTF-8" standalone="no"?><!DOCTYPE svg PUBLIC "-//W3C//DTD SVG 1.1//EN" "http://www.w3.org/Graphics/SVG/1.1/DTD/svg11.dtd"><svg width="100%" height="100%" viewBox="0 0 3260 1437" version="1.1" xmlns="http://www.w3.org/2000/svg" xmlns:xlink="http://www.w3.org/1999/xlink" xml:space="preserve" xmlns:serif="http://www.serif.com/" style="fill-rule:evenodd;clip-rule:evenodd;stroke-linejoin:round;stroke-miterlimit:2;"><g id="ParkIT"><g id="logo"><path d="M3257.01,303.065c-0,-167.266 -135.799,-303.065 -303.066,-303.065l-2648.8,0c-167.267,0 -303.066,135.799 -303.066,303.065l0,606.131c0,167.266 135.799,303.065 303.066,303.065l2648.8,-0c167.267,-0 303.066,-135.799 303.066,-303.065l-0,-606.131Z"/><g><path d="M885.741,1009.34l-75.238,0l0,121.582c0,17.383 -3.872,30.567 -11.618,39.551c-7.745,8.985 -17.518,13.477 -29.32,13.477c-12.356,-0 -22.314,-4.444 -29.874,-13.33c-7.561,-8.887 -11.341,-21.924 -11.341,-39.112l-0,-331.054c-0,-19.141 4.149,-32.813 12.447,-41.016c8.298,-8.203 21.484,-12.305 39.555,-12.305l105.389,0c31.165,0 55.138,2.539 71.919,7.618c16.597,4.882 30.935,12.988 43.014,24.316c12.078,11.328 21.252,25.195 27.522,41.602c6.27,16.406 9.405,34.863 9.405,55.371c0,43.75 -12.724,76.904 -38.172,99.462c-25.449,22.559 -63.344,33.838 -113.688,33.838Zm-19.916,-196.875l-55.322,0l0,131.25l55.322,0c19.363,0 35.545,-2.148 48.546,-6.445c13,-4.297 22.912,-11.328 29.735,-21.094c6.824,-9.765 10.235,-22.558 10.235,-38.379c0,-18.945 -5.256,-34.375 -15.767,-46.289c-11.802,-12.695 -36.051,-19.043 -72.749,-19.043Z" style="fill:#fff;fill-rule:nonzero;stroke:#fff;stroke-width:4.17px;"/><path d="M1287.23,1138.83c-18.256,15.039 -35.913,26.318 -52.971,33.837c-17.057,7.52 -36.19,11.28 -57.397,11.28c-19.362,-0 -36.374,-4.053 -51.034,-12.158c-14.661,-8.106 -25.956,-19.092 -33.885,-32.959c-7.93,-13.868 -11.895,-28.907 -11.895,-45.118c0,-21.875 6.547,-40.527 19.64,-55.957c13.093,-15.429 31.073,-25.781 53.939,-31.054c4.795,-1.172 16.689,-3.809 35.683,-7.91c18.994,-4.102 35.268,-7.862 48.822,-11.28c13.554,-3.418 28.26,-7.568 44.119,-12.451c-0.922,-21.094 -4.933,-36.572 -12.032,-46.436c-7.1,-9.863 -21.806,-14.794 -44.12,-14.794c-19.178,-0 -33.608,2.832 -43.289,8.496c-9.682,5.664 -17.98,14.16 -24.895,25.488c-6.916,11.328 -11.803,18.799 -14.661,22.412c-2.858,3.613 -8.99,5.42 -18.395,5.42c-8.482,-0 -15.812,-2.881 -21.99,-8.643c-6.178,-5.761 -9.267,-13.134 -9.267,-22.119c0,-14.062 4.703,-27.734 14.108,-41.015c9.404,-13.282 24.065,-24.219 43.981,-32.813c19.916,-8.594 44.719,-12.89 74.408,-12.89c33.194,-0 59.287,4.15 78.281,12.451c18.994,8.3 32.41,21.435 40.247,39.404c7.838,17.969 11.756,41.797 11.756,71.484c0,18.75 -0.046,34.668 -0.138,47.754c-0.092,13.086 -0.231,27.637 -0.415,43.653c0,15.039 2.351,30.712 7.054,47.021c4.702,16.309 7.053,26.807 7.053,31.494c0,8.203 -3.642,15.674 -10.926,22.412c-7.284,6.739 -15.536,10.108 -24.757,10.108c-7.745,-0 -15.398,-3.858 -22.958,-11.573c-7.561,-7.714 -15.583,-18.896 -24.066,-33.544Zm-4.979,-115.723c-11.064,4.297 -27.154,8.838 -48.268,13.623c-21.115,4.785 -35.729,8.301 -43.843,10.547c-8.114,2.246 -15.859,6.64 -23.236,13.183c-7.376,6.543 -11.064,15.674 -11.064,27.393c-0,12.109 4.334,22.412 13.001,30.908c8.667,8.496 20.008,12.744 34.023,12.744c14.937,0 28.721,-3.466 41.353,-10.4c12.632,-6.934 21.899,-15.869 27.8,-26.807c6.823,-12.109 10.234,-32.031 10.234,-59.765l0,-11.426Z" style="fill:#fff;fill-rule:nonzero;stroke:#fff;stroke-width:4.17px;"/><path d="M1524.96,1068.52l0,66.797c0,16.211 -3.596,28.369 -10.787,36.475c-7.192,8.105 -16.321,12.158 -27.385,12.158c-10.88,-0 -19.824,-4.102 -26.831,-12.305c-7.008,-8.203 -10.512,-20.312 -10.512,-36.328l0,-222.656c0,-35.938 12.264,-53.907 36.79,-53.907c12.539,0 21.575,4.2 27.108,12.598c5.532,8.399 8.575,20.801 9.128,37.207c9.036,-16.406 18.302,-28.808 27.799,-37.207c9.497,-8.398 22.175,-12.598 38.034,-12.598c15.859,0 31.258,4.2 46.195,12.598c14.937,8.399 22.405,19.531 22.405,33.399c0,9.765 -3.181,17.822 -9.543,24.169c-6.362,6.348 -13.231,9.522 -20.608,9.522c-2.766,-0 -9.45,-1.807 -20.054,-5.42c-10.603,-3.613 -19.962,-5.42 -28.076,-5.42c-11.064,0 -20.1,3.076 -27.108,9.229c-7.007,6.152 -12.447,15.283 -16.32,27.392c-3.873,12.11 -6.546,26.514 -8.022,43.213c-1.475,16.699 -2.213,37.061 -2.213,61.084Z" style="fill:#fff;fill-rule:nonzero;stroke:#fff;stroke-width:4.17px;"/><path d="M1889.1,1147.32l-66.664,-116.016l-40.938,41.016l-0,63.574c-0,15.43 -3.827,27.295 -11.479,35.596c-7.653,8.3 -16.459,12.451 -26.417,12.451c-11.618,-0 -20.746,-4.102 -27.384,-12.305c-6.639,-8.203 -9.958,-20.312 -9.958,-36.328l-0,-341.016c-0,-17.773 3.227,-31.299 9.681,-40.576c6.454,-9.277 15.675,-13.916 27.661,-13.916c11.618,0 20.838,4.199 27.661,12.598c6.823,8.398 10.235,20.801 10.235,37.207l-0,193.945l84.92,-94.336c10.511,-11.719 18.533,-19.726 24.065,-24.023c5.532,-4.297 12.263,-6.446 20.192,-6.446c9.405,0 17.243,3.174 23.512,9.522c6.27,6.348 9.405,14.307 9.405,23.877c0,11.719 -10.234,27.344 -30.704,46.875l-40.108,38.965l77.451,128.906c5.717,9.57 9.82,16.846 12.309,21.826c2.49,4.981 3.734,9.717 3.734,14.209c0,12.695 -3.273,22.705 -9.819,30.029c-6.547,7.325 -15.168,10.987 -25.863,10.987c-9.221,-0 -16.321,-2.637 -21.3,-7.91c-4.979,-5.274 -11.709,-14.844 -20.192,-28.711Z" style="fill:#fff;fill-rule:nonzero;stroke:#fff;stroke-width:4.17px;"/><path d="M2051.32,1130.92l-0,-338.378c-0,-17.579 3.78,-30.762 11.341,-39.551c7.561,-8.789 17.334,-13.184 29.321,-13.184c12.355,0 22.359,4.346 30.012,13.037c7.653,8.692 11.479,21.924 11.479,39.698l0,338.378c0,17.774 -3.826,31.055 -11.479,39.844c-7.653,8.789 -17.657,13.184 -30.012,13.184c-11.802,-0 -21.53,-4.444 -29.183,-13.33c-7.653,-8.887 -11.479,-22.119 -11.479,-39.698Z" style="fill:#fff;fill-rule:nonzero;stroke:#fff;stroke-width:4.17px;"/><path d="M2505.63,818.906l-89.623,-0l0,312.011c0,17.969 -3.78,31.299 -11.341,39.991c-7.56,8.691 -17.334,13.037 -29.32,13.037c-12.171,-0 -22.083,-4.395 -29.736,-13.184c-7.653,-8.789 -11.48,-22.07 -11.48,-39.844l0,-312.011l-89.622,-0c-14.015,-0 -24.434,-3.272 -31.257,-9.815c-6.823,-6.543 -10.234,-15.185 -10.234,-25.927c-0,-11.133 3.549,-19.922 10.649,-26.368c7.1,-6.445 17.381,-9.668 30.842,-9.668l261.122,0c14.199,0 24.756,3.321 31.672,9.961c6.915,6.641 10.373,15.332 10.373,26.075c-0,10.742 -3.504,19.384 -10.512,25.927c-7.007,6.543 -17.518,9.815 -31.533,9.815Z" style="fill:#fff;fill-rule:nonzero;stroke:#fff;stroke-width:4.17px;"/><g id="car"><path d="M85.425,679.31c-3.128,-62.411 -9.384,-187.234 51.348,-226.95c104.836,-68.558 454.511,-9.673 577.669,-184.397c173.301,-245.863 688.924,-229.315 924.271,-99.291c184.981,102.197 363.515,231.347 564.832,283.688c218.23,56.737 554.134,-78.014 744.551,56.737c139.092,98.431 208.967,165.198 243.905,198.582" style="fill:none;stroke:#fff;stroke-width:72.11px;stroke-linecap:round;stroke-miterlimit:1.5;"/><path d="M85.425,679.31c-3.128,-62.411 -9.384,-187.234 51.348,-226.95c104.836,-68.558 454.511,-9.673 577.669,-184.397c173.301,-245.863 688.924,-229.315 924.271,-99.291c184.981,102.197 363.515,231.347 564.832,283.688c218.23,56.737 554.134,-78.014 744.551,56.737c139.092,98.431 208.967,165.198 243.905,198.582" style="fill:none;stroke:#fff;stroke-width:72.11px;stroke-linecap:round;stroke-miterlimit:1.5;"/><path d="M85.425,679.31c-3.128,-62.411 -9.384,-187.234 51.348,-226.95c104.836,-68.558 454.511,-9.673 577.669,-184.397c173.301,-245.863 688.924,-229.315 924.271,-99.291c184.981,102.197 363.515,231.347 564.832,283.688c218.23,56.737 554.134,-78.014 744.551,56.737c139.092,98.431 208.967,165.198 243.905,198.582" style="fill:none;stroke:#fff;stroke-width:72.11px;stroke-linecap:round;stroke-miterlimit:1.5;"/><path d="M718.416,488.722l274.468,225.148c0,-0 -19.76,-111.741 -274.468,-225.148Z" style="fill:none;stroke:#fff;stroke-width:72.11px;stroke-linecap:round;stroke-miterlimit:1.5;"/><path d="M1138.07,608.388l77.023,141.844l949.944,28.369" style="fill:none;stroke:#fff;stroke-width:72.11px;stroke-linecap:round;stroke-miterlimit:1.5;"/><path d="M906.998,523.282l1014.13,42.553" style="fill:none;stroke:#fff;stroke-width:72.11px;stroke-linecap:round;stroke-miterlimit:1.5;"/></g></g></g><path d="M83.926,1430.88l-58.384,0c-8.428,0 -14.445,-2.001 -18.05,-6.004c-3.606,-4.003 -5.409,-10.375 -5.409,-19.117l0,-152.109c0,-8.926 1.847,-15.344 5.539,-19.255c3.693,-3.911 9.666,-5.866 17.92,-5.866l61.903,-0c9.123,-0 17.029,0.598 23.719,1.794c6.69,1.196 12.685,3.497 17.984,6.902c4.518,2.852 8.515,6.464 11.99,10.835c3.475,4.371 6.125,9.202 7.95,14.493c1.824,5.291 2.737,10.881 2.737,16.771c-0,20.244 -9.557,35.059 -28.671,44.445c25.109,8.466 37.663,24.938 37.663,49.415c-0,11.318 -2.737,21.509 -8.21,30.573c-5.474,9.064 -12.859,15.759 -22.155,20.084c-5.821,2.576 -12.511,4.394 -20.07,5.452c-7.559,1.058 -16.377,1.587 -26.456,1.587Zm-2.867,-89.857l-40.27,-0l0,59.077l41.573,-0c26.152,-0 39.228,-9.984 39.228,-29.953c-0,-10.214 -3.389,-17.622 -10.165,-22.223c-6.777,-4.601 -16.899,-6.901 -30.366,-6.901Zm-40.27,-81.714l0,52.314l35.448,-0c9.644,-0 17.094,-0.967 22.351,-2.899c5.256,-1.932 9.274,-5.613 12.055,-11.042c2.172,-3.865 3.258,-8.19 3.258,-12.975c-0,-10.214 -3.432,-17.001 -10.296,-20.36c-6.864,-3.358 -17.333,-5.038 -31.408,-5.038l-31.408,0Z" style="fill:#1c1010;fill-rule:nonzero;stroke:#fff;stroke-width:4.17px;"/><path d="M299.147,1366.97l-69.592,-0c0.087,8.557 1.716,16.103 4.887,22.636c3.171,6.534 7.385,11.457 12.641,14.77c5.257,3.312 11.056,4.969 17.398,4.969c4.258,-0 8.145,-0.529 11.664,-1.588c3.519,-1.058 6.929,-2.714 10.231,-4.969c3.301,-2.254 6.342,-4.67 9.122,-7.246c2.78,-2.577 6.386,-6.074 10.817,-10.491c1.825,-1.656 4.431,-2.484 7.819,-2.484c3.649,-0 6.603,1.058 8.862,3.175c2.259,2.116 3.389,5.107 3.389,8.971c-0,3.405 -1.26,7.385 -3.78,11.94c-2.519,4.555 -6.32,8.926 -11.403,13.113c-5.082,4.187 -11.468,7.661 -19.157,10.421c-7.689,2.761 -16.53,4.141 -26.521,4.141c-22.85,0 -40.618,-6.901 -53.302,-20.704c-12.685,-13.803 -19.028,-32.529 -19.028,-56.179c0,-11.134 1.564,-21.463 4.692,-30.987c3.128,-9.524 7.689,-17.691 13.684,-24.501c5.995,-6.809 13.38,-12.031 22.155,-15.666c8.775,-3.635 18.506,-5.452 29.192,-5.452c13.902,-0 25.826,3.106 35.774,9.317c9.948,6.211 17.398,14.24 22.351,24.086c4.952,9.846 7.428,19.876 7.428,30.091c-0,9.478 -2.563,15.62 -7.689,18.427c-5.126,2.806 -12.337,4.21 -21.634,4.21Zm-69.592,-21.395l64.51,-0c-0.869,-12.883 -4.149,-22.522 -9.84,-28.917c-5.691,-6.396 -13.184,-9.593 -22.481,-9.593c-8.861,-0 -16.138,3.243 -21.829,9.731c-5.69,6.487 -9.144,16.08 -10.36,28.779Z" style="fill:#1c1010;fill-rule:nonzero;stroke:#fff;stroke-width:4.17px;"/><path d="M588.84,1370.15c0,12.239 -2.976,23.235 -8.927,32.989c-5.951,9.754 -14.661,17.392 -26.13,22.913c-11.468,5.521 -25.065,8.282 -40.791,8.282c-18.853,0 -34.405,-3.773 -46.656,-11.318c-8.688,-5.43 -15.747,-12.676 -21.177,-21.74c-5.43,-9.064 -8.145,-17.875 -8.145,-26.433c-0,-4.969 1.629,-9.225 4.887,-12.768c3.258,-3.542 7.406,-5.314 12.446,-5.314c4.083,0 7.537,1.381 10.36,4.141c2.824,2.761 5.235,6.856 7.233,12.285c2.433,6.441 5.061,11.824 7.885,16.149c2.823,4.325 6.798,7.891 11.924,10.698c5.126,2.806 11.86,4.21 20.2,4.21c11.469,-0 20.787,-2.83 27.955,-8.489c7.168,-5.66 10.751,-12.722 10.751,-21.188c0,-6.717 -1.933,-12.169 -5.799,-16.356c-3.866,-4.187 -8.862,-7.385 -14.987,-9.593c-6.125,-2.209 -14.314,-4.555 -24.566,-7.04c-13.727,-3.405 -25.218,-7.385 -34.471,-11.94c-9.253,-4.555 -16.594,-10.766 -22.024,-18.634c-5.43,-7.867 -8.145,-17.644 -8.145,-29.331c-0,-11.134 2.867,-21.026 8.601,-29.676c5.734,-8.65 14.031,-15.299 24.892,-19.946c10.86,-4.647 23.632,-6.97 38.315,-6.97c11.729,-0 21.872,1.541 30.43,4.624c8.558,3.083 15.661,7.177 21.308,12.285c5.647,5.107 9.774,10.467 12.381,16.08c2.606,5.613 3.909,11.088 3.909,16.426c0,4.877 -1.629,9.271 -4.887,13.181c-3.258,3.911 -7.32,5.867 -12.185,5.867c-4.431,-0 -7.798,-1.174 -10.1,-3.52c-2.302,-2.347 -4.8,-6.188 -7.494,-11.526c-3.475,-7.637 -7.645,-13.596 -12.511,-17.874c-4.865,-4.279 -12.684,-6.419 -23.458,-6.419c-9.991,0 -18.05,2.324 -24.175,6.971c-6.125,4.647 -9.188,10.237 -9.188,16.77c0,4.049 1.043,7.546 3.128,10.491c2.085,2.944 4.953,5.475 8.602,7.591c3.649,2.117 7.341,3.773 11.077,4.969c3.736,1.197 9.905,2.945 18.506,5.245c10.773,2.669 20.526,5.614 29.258,8.834c8.731,3.221 16.16,7.132 22.285,11.733c6.125,4.601 10.903,10.421 14.335,17.461c3.432,7.039 5.148,15.666 5.148,25.88Z" style="fill:#1c1010;fill-rule:nonzero;stroke:#fff;stroke-width:4.17px;"/><path d="M745.546,1360.49l-0,50.105c-0,7.914 -1.694,13.849 -5.083,17.806c-3.388,3.957 -7.863,5.935 -13.423,5.935c-5.387,0 -9.752,-1.978 -13.097,-5.935c-3.345,-3.957 -5.018,-9.892 -5.018,-17.806l0,-60.043c0,-9.478 -0.304,-16.84 -0.912,-22.085c-0.608,-5.245 -2.259,-9.547 -4.952,-12.906c-2.694,-3.358 -6.951,-5.038 -12.772,-5.038c-11.642,0 -19.31,4.233 -23.002,12.699c-3.693,8.466 -5.539,20.613 -5.539,36.44l0,50.933c0,7.822 -1.672,13.734 -5.017,17.737c-3.345,4.003 -7.755,6.004 -13.228,6.004c-5.387,0 -9.796,-2.001 -13.228,-6.004c-3.432,-4.003 -5.148,-9.915 -5.148,-17.737l0,-107.801c0,-7.086 1.542,-12.469 4.627,-16.15c3.084,-3.681 7.146,-5.521 12.185,-5.521c4.865,-0 8.927,1.725 12.185,5.176c3.258,3.451 4.887,8.213 4.887,14.286l0,3.589c6.169,-7.822 12.772,-13.573 19.809,-17.254c7.038,-3.681 14.857,-5.521 23.459,-5.521c8.948,0 16.638,1.886 23.067,5.659c6.429,3.773 11.729,9.478 15.899,17.116c5.995,-7.73 12.424,-13.458 19.288,-17.185c6.864,-3.727 14.466,-5.59 22.807,-5.59c9.73,0 18.115,2.024 25.152,6.073c7.037,4.049 12.294,9.846 15.769,17.392c3.041,6.81 4.561,17.53 4.561,32.161l0,73.57c0,7.914 -1.694,13.849 -5.082,17.806c-3.389,3.957 -7.863,5.935 -13.423,5.935c-5.387,0 -9.796,-2.001 -13.228,-6.004c-3.432,-4.003 -5.148,-9.915 -5.148,-17.737l-0,-63.356c-0,-8.097 -0.326,-14.585 -0.977,-19.462c-0.652,-4.877 -2.411,-8.972 -5.279,-12.285c-2.867,-3.312 -7.211,-4.969 -13.032,-4.969c-4.691,0 -9.144,1.473 -13.358,4.417c-4.214,2.945 -7.494,6.902 -9.839,11.871c-2.607,6.349 -3.91,17.576 -3.91,33.679Z" style="fill:#1c1010;fill-rule:nonzero;stroke:#fff;stroke-width:4.17px;"/><path d="M961.288,1413.07c-8.601,7.086 -16.92,12.4 -24.957,15.943c-8.036,3.543 -17.05,5.314 -27.042,5.314c-9.122,0 -17.137,-1.909 -24.044,-5.728c-6.908,-3.819 -12.229,-8.995 -15.965,-15.529c-3.736,-6.533 -5.604,-13.618 -5.604,-21.256c0,-10.306 3.084,-19.094 9.253,-26.364c6.169,-7.269 14.64,-12.146 25.413,-14.631c2.259,-0.552 7.863,-1.794 16.812,-3.727c8.949,-1.932 16.616,-3.704 23.002,-5.314c6.386,-1.61 13.314,-3.566 20.786,-5.866c-0.434,-9.938 -2.324,-17.231 -5.669,-21.878c-3.345,-4.647 -10.274,-6.97 -20.786,-6.97c-9.036,-0 -15.835,1.334 -20.396,4.002c-4.561,2.669 -8.471,6.672 -11.729,12.009c-3.258,5.337 -5.56,8.857 -6.907,10.559c-1.347,1.703 -4.236,2.554 -8.667,2.554c-3.996,-0 -7.45,-1.357 -10.36,-4.072c-2.911,-2.715 -4.366,-6.188 -4.366,-10.421c-0,-6.626 2.215,-13.067 6.646,-19.324c4.431,-6.258 11.339,-11.411 20.722,-15.46c9.383,-4.049 21.069,-6.073 35.057,-6.073c15.639,-0 27.932,1.955 36.881,5.866c8.949,3.911 15.27,10.099 18.962,18.565c3.693,8.466 5.539,19.692 5.539,33.679c-0,8.834 -0.022,16.334 -0.065,22.499c-0.044,6.166 -0.109,13.021 -0.196,20.567c0,7.085 1.108,14.47 3.324,22.154c2.215,7.683 3.323,12.629 3.323,14.838c-0,3.865 -1.716,7.384 -5.148,10.559c-3.432,3.175 -7.32,4.762 -11.664,4.762c-3.649,0 -7.255,-1.817 -10.817,-5.452c-3.562,-3.635 -7.341,-8.903 -11.338,-15.805Zm-2.346,-54.521c-5.213,2.024 -12.793,4.164 -22.741,6.418c-9.948,2.255 -16.833,3.911 -20.656,4.969c-3.823,1.058 -7.472,3.129 -10.947,6.211c-3.476,3.083 -5.213,7.385 -5.213,12.906c-0,5.706 2.041,10.56 6.125,14.562c4.083,4.003 9.427,6.005 16.03,6.005c7.037,-0 13.531,-1.634 19.483,-4.9c5.951,-3.267 10.317,-7.477 13.097,-12.63c3.215,-5.705 4.822,-15.091 4.822,-28.158l0,-5.383Z" style="fill:#1c1010;fill-rule:nonzero;stroke:#fff;stroke-width:4.17px;"/><path d="M1073.29,1379.95l0,31.471c0,7.638 -1.694,13.366 -5.082,17.185c-3.389,3.819 -7.69,5.728 -12.902,5.728c-5.127,0 -9.34,-1.932 -12.642,-5.797c-3.301,-3.865 -4.952,-9.57 -4.952,-17.116l-0,-104.903c-0,-16.931 5.778,-25.397 17.333,-25.397c5.908,-0 10.165,1.978 12.772,5.935c2.606,3.957 4.04,9.8 4.3,17.53c4.257,-7.73 8.623,-13.573 13.098,-17.53c4.474,-3.957 10.447,-5.935 17.919,-5.935c7.472,-0 14.727,1.978 21.764,5.935c7.038,3.957 10.556,9.202 10.556,15.736c0,4.601 -1.498,8.396 -4.496,11.387c-2.997,2.991 -6.234,4.486 -9.709,4.486c-1.303,0 -4.453,-0.851 -9.448,-2.553c-4.996,-1.703 -9.405,-2.554 -13.228,-2.554c-5.213,-0 -9.47,1.449 -12.772,4.348c-3.301,2.899 -5.864,7.2 -7.689,12.906c-1.824,5.705 -3.084,12.491 -3.779,20.359c-0.695,7.868 -1.043,17.461 -1.043,28.779Z" style="fill:#1c1010;fill-rule:nonzero;stroke:#fff;stroke-width:4.17px;"/><path d="M1168.1,1284.43l3.91,-0l0,-22.637c0,-6.074 0.152,-10.836 0.456,-14.286c0.304,-3.451 1.151,-6.419 2.542,-8.903c1.39,-2.577 3.388,-4.67 5.994,-6.281c2.607,-1.61 5.517,-2.415 8.732,-2.415c4.518,-0 8.601,1.794 12.25,5.383c2.433,2.393 3.975,5.314 4.627,8.765c0.652,3.451 0.977,8.351 0.977,14.7l0,25.674l13.033,-0c5.039,-0 8.883,1.265 11.533,3.796c2.65,2.53 3.975,5.774 3.975,9.731c0,5.061 -1.89,8.603 -5.669,10.628c-3.779,2.024 -9.188,3.037 -16.225,3.037l-6.647,-0l0,69.291c0,5.889 0.196,10.421 0.587,13.595c0.391,3.175 1.433,5.752 3.128,7.73c1.694,1.979 4.452,2.968 8.275,2.968c2.085,-0 4.909,-0.391 8.471,-1.173c3.562,-0.783 6.343,-1.174 8.341,-1.174c2.867,0 5.452,1.22 7.754,3.658c2.302,2.439 3.454,5.452 3.454,9.041c-0,6.073 -3.128,10.72 -9.384,13.941c-6.255,3.221 -15.247,4.831 -26.977,4.831c-11.12,0 -19.548,-1.978 -25.282,-5.935c-5.734,-3.957 -9.492,-9.432 -11.273,-16.426c-1.781,-6.993 -2.672,-16.333 -2.672,-28.02l0,-72.327l-4.691,-0c-5.127,-0 -9.036,-1.289 -11.73,-3.865c-2.693,-2.577 -4.04,-5.844 -4.04,-9.8c0,-3.957 1.412,-7.201 4.236,-9.731c2.824,-2.531 6.929,-3.796 12.315,-3.796Z" style="fill:#1c1010;fill-rule:nonzero;stroke:#fff;stroke-width:4.17px;"/><path d="M1508.61,1366.97c0,6.441 -1.498,13.411 -4.496,20.911c-2.997,7.5 -7.711,14.861 -14.14,22.085c-6.429,7.223 -14.64,13.09 -24.631,17.599c-9.991,4.509 -21.634,6.763 -34.927,6.763c-10.078,0 -19.244,-1.012 -27.498,-3.037c-8.254,-2.024 -15.747,-5.176 -22.481,-9.455c-6.733,-4.279 -12.923,-9.915 -18.571,-16.908c-5.039,-6.35 -9.339,-13.458 -12.902,-21.326c-3.562,-7.868 -6.233,-16.264 -8.014,-25.19c-1.782,-8.926 -2.672,-18.404 -2.672,-28.434c-0,-16.288 2.237,-30.873 6.712,-43.756c4.474,-12.883 10.882,-23.902 19.222,-33.058c8.341,-9.156 18.115,-16.127 29.323,-20.912c11.208,-4.785 23.154,-7.177 35.839,-7.177c15.465,-0 29.236,3.267 41.312,9.8c12.077,6.533 21.33,14.608 27.759,24.224c6.429,9.616 9.644,18.703 9.644,27.261c0,4.693 -1.564,8.834 -4.692,12.423c-3.127,3.589 -6.907,5.383 -11.338,5.383c-4.952,-0 -8.666,-1.242 -11.142,-3.727c-2.476,-2.484 -5.235,-6.763 -8.276,-12.837c-5.039,-10.03 -10.969,-17.529 -17.789,-22.498c-6.82,-4.97 -15.226,-7.454 -25.218,-7.454c-15.899,-0 -28.562,6.395 -37.989,19.186c-9.426,12.791 -14.14,30.965 -14.14,54.522c0,15.735 2.085,28.825 6.256,39.269c4.17,10.445 10.078,18.243 17.724,23.396c7.645,5.153 16.594,7.73 26.846,7.73c11.121,0 20.526,-2.922 28.215,-8.765c7.689,-5.843 13.489,-14.424 17.398,-25.742c1.651,-5.338 3.693,-9.686 6.126,-13.044c2.432,-3.359 6.342,-5.038 11.729,-5.038c4.604,-0 8.558,1.702 11.859,5.107c3.302,3.405 4.952,7.637 4.952,12.699Z" style="fill:#1c1010;fill-rule:nonzero;stroke:#fff;stroke-width:4.17px;"/><path d="M1583.74,1247.99l-0,55.902c4.518,-5.521 8.927,-9.892 13.228,-13.113c4.3,-3.221 9.057,-5.636 14.27,-7.247c5.213,-1.61 10.817,-2.415 16.812,-2.415c9.035,-0 17.05,2.024 24.044,6.073c6.994,4.049 12.49,9.938 16.486,17.668c2.52,4.509 4.214,9.547 5.083,15.114c0.869,5.568 1.303,11.986 1.303,19.256l0,72.189c0,7.546 -1.629,13.251 -4.887,17.116c-3.258,3.865 -7.58,5.797 -12.967,5.797c-11.729,0 -17.594,-7.638 -17.594,-22.913l0,-63.632c0,-12.054 -1.694,-21.325 -5.082,-27.813c-3.389,-6.487 -9.818,-9.731 -19.288,-9.731c-6.343,0 -12.055,1.91 -17.138,5.729c-5.082,3.818 -8.883,9.04 -11.403,15.666c-1.911,5.613 -2.867,15.597 -2.867,29.952l-0,49.829c-0,7.454 -1.586,13.136 -4.757,17.047c-3.171,3.911 -7.58,5.866 -13.228,5.866c-11.729,0 -17.593,-7.638 -17.593,-22.913l-0,-163.427c-0,-7.638 1.542,-13.366 4.626,-17.185c3.084,-3.819 7.407,-5.728 12.967,-5.728c5.648,-0 10.057,1.932 13.228,5.797c3.171,3.865 4.757,9.57 4.757,17.116Z" style="fill:#1c1010;fill-rule:nonzero;stroke:#fff;stroke-width:4.17px;"/><path d="M1851.35,1357.73c-0,11.226 -1.651,21.578 -4.953,31.056c-3.301,9.478 -8.08,17.622 -14.335,24.431c-6.256,6.81 -13.727,12.032 -22.416,15.667c-8.688,3.635 -18.462,5.452 -29.322,5.452c-10.774,0 -20.461,-1.84 -29.062,-5.521c-8.602,-3.681 -16.052,-8.949 -22.351,-15.805c-6.299,-6.855 -11.077,-14.953 -14.335,-24.293c-3.259,-9.34 -4.888,-19.669 -4.888,-30.987c0,-11.411 1.651,-21.855 4.953,-31.333c3.301,-9.478 8.036,-17.576 14.205,-24.293c6.169,-6.718 13.64,-11.894 22.416,-15.529c8.775,-3.635 18.462,-5.452 29.062,-5.452c10.773,-0 20.547,1.84 29.322,5.521c8.775,3.681 16.291,8.926 22.546,15.736c6.256,6.809 11.013,14.907 14.271,24.293c3.258,9.386 4.887,19.738 4.887,31.057Zm-35.709,-0c0,-15.368 -3.193,-27.33 -9.579,-35.888c-6.385,-8.558 -14.965,-12.837 -25.738,-12.837c-6.951,-0 -13.076,1.909 -18.376,5.728c-5.3,3.819 -9.383,9.455 -12.25,16.909c-2.867,7.453 -4.301,16.149 -4.301,26.088c-0,9.846 1.412,18.449 4.235,25.811c2.824,7.362 6.864,12.998 12.121,16.909c5.256,3.911 11.446,5.866 18.571,5.866c10.773,0 19.353,-4.302 25.738,-12.906c6.386,-8.604 9.579,-20.497 9.579,-35.68Z" style="fill:#1c1010;fill-rule:nonzero;stroke:#fff;stroke-width:4.17px;"/><path d="M2020.57,1357.73c-0,11.226 -1.651,21.578 -4.953,31.056c-3.301,9.478 -8.08,17.622 -14.335,24.431c-6.256,6.81 -13.728,12.032 -22.416,15.667c-8.688,3.635 -18.462,5.452 -29.323,5.452c-10.773,0 -20.46,-1.84 -29.062,-5.521c-8.601,-3.681 -16.051,-8.949 -22.35,-15.805c-6.299,-6.855 -11.078,-14.953 -14.336,-24.293c-3.258,-9.34 -4.887,-19.669 -4.887,-30.987c0,-11.411 1.651,-21.855 4.953,-31.333c3.301,-9.478 8.036,-17.576 14.205,-24.293c6.168,-6.718 13.64,-11.894 22.415,-15.529c8.775,-3.635 18.463,-5.452 29.062,-5.452c10.774,-0 20.548,1.84 29.323,5.521c8.775,3.681 16.291,8.926 22.546,15.736c6.256,6.809 11.012,14.907 14.27,24.293c3.259,9.386 4.888,19.738 4.888,31.057Zm-35.709,-0c0,-15.368 -3.193,-27.33 -9.579,-35.888c-6.386,-8.558 -14.965,-12.837 -25.739,-12.837c-6.95,-0 -13.075,1.909 -18.375,5.728c-5.3,3.819 -9.383,9.455 -12.251,16.909c-2.867,7.453 -4.3,16.149 -4.3,26.088c-0,9.846 1.412,18.449 4.235,25.811c2.824,7.362 6.864,12.998 12.12,16.909c5.257,3.911 11.447,5.866 18.571,5.866c10.774,0 19.353,-4.302 25.739,-12.906c6.386,-8.604 9.579,-20.497 9.579,-35.68Z" style="fill:#1c1010;fill-rule:nonzero;stroke:#fff;stroke-width:4.17px;"/><path d="M2171.15,1385.05c0,10.399 -2.389,19.302 -7.168,26.709c-4.778,7.408 -11.837,13.021 -21.177,16.84c-9.34,3.819 -20.7,5.728 -34.08,5.728c-12.771,0 -23.718,-2.07 -32.841,-6.211c-9.123,-4.141 -15.856,-9.317 -20.2,-15.529c-4.344,-6.211 -6.516,-12.445 -6.516,-18.703c-0,-4.141 1.39,-7.683 4.17,-10.628c2.78,-2.945 6.299,-4.417 10.556,-4.417c3.736,0 6.603,0.966 8.602,2.899c1.998,1.932 3.909,4.647 5.734,8.143c3.649,6.718 8.015,11.733 13.097,15.046c5.083,3.312 12.012,4.969 20.787,4.969c7.124,-0 12.967,-1.68 17.528,-5.038c4.562,-3.359 6.842,-7.201 6.842,-11.526c0,-6.625 -2.367,-11.456 -7.102,-14.493c-4.735,-3.037 -12.533,-5.935 -23.393,-8.696c-12.251,-3.221 -22.22,-6.602 -29.91,-10.145c-7.689,-3.543 -13.836,-8.213 -18.44,-14.01c-4.605,-5.797 -6.907,-12.929 -6.907,-21.395c-0,-7.545 2.128,-14.677 6.385,-21.394c4.258,-6.718 10.535,-12.078 18.832,-16.081c8.297,-4.003 18.311,-6.004 30.04,-6.004c9.209,-0 17.485,1.012 24.826,3.037c7.342,2.024 13.467,4.739 18.376,8.143c4.909,3.405 8.645,7.178 11.208,11.319c2.563,4.141 3.844,8.19 3.844,12.146c0,4.325 -1.368,7.868 -4.105,10.629c-2.737,2.76 -6.625,4.141 -11.664,4.141c-3.649,-0 -6.755,-1.105 -9.318,-3.313c-2.563,-2.209 -5.495,-5.521 -8.797,-9.938c-2.693,-3.681 -5.864,-6.626 -9.514,-8.834c-3.649,-2.209 -8.601,-3.313 -14.856,-3.313c-6.43,0 -11.773,1.449 -16.03,4.348c-4.257,2.899 -6.386,6.511 -6.386,10.835c0,3.957 1.564,7.201 4.692,9.732c3.127,2.53 7.341,4.624 12.641,6.28c5.3,1.656 12.598,3.681 21.894,6.073c11.034,2.853 20.048,6.258 27.042,10.214c6.994,3.957 12.294,8.627 15.9,14.01c3.605,5.384 5.408,11.526 5.408,18.427Z" style="fill:#1c1010;fill-rule:nonzero;stroke:#fff;stroke-width:4.17px;"/><path d="M2308.56,1366.97l-69.592,-0c0.087,8.557 1.716,16.103 4.887,22.636c3.171,6.534 7.385,11.457 12.641,14.77c5.256,3.312 11.056,4.969 17.398,4.969c4.257,-0 8.145,-0.529 11.664,-1.588c3.519,-1.058 6.929,-2.714 10.231,-4.969c3.301,-2.254 6.342,-4.67 9.122,-7.246c2.78,-2.577 6.386,-6.074 10.817,-10.491c1.825,-1.656 4.431,-2.484 7.819,-2.484c3.649,-0 6.603,1.058 8.862,3.175c2.259,2.116 3.389,5.107 3.389,8.971c-0,3.405 -1.26,7.385 -3.78,11.94c-2.519,4.555 -6.32,8.926 -11.403,13.113c-5.082,4.187 -11.468,7.661 -19.157,10.421c-7.689,2.761 -16.53,4.141 -26.521,4.141c-22.85,0 -40.618,-6.901 -53.302,-20.704c-12.685,-13.803 -19.028,-32.529 -19.028,-56.179c0,-11.134 1.564,-21.463 4.692,-30.987c3.128,-9.524 7.689,-17.691 13.684,-24.501c5.995,-6.809 13.38,-12.031 22.155,-15.666c8.775,-3.635 18.506,-5.452 29.192,-5.452c13.902,-0 25.826,3.106 35.774,9.317c9.948,6.211 17.398,14.24 22.351,24.086c4.952,9.846 7.428,19.876 7.428,30.091c-0,9.478 -2.563,15.62 -7.689,18.427c-5.126,2.806 -12.337,4.21 -21.634,4.21Zm-69.592,-21.395l64.51,-0c-0.869,-12.883 -4.149,-22.522 -9.84,-28.917c-5.691,-6.396 -13.184,-9.593 -22.481,-9.593c-8.862,-0 -16.138,3.243 -21.829,9.731c-5.69,6.487 -9.144,16.08 -10.36,28.779Z" style="fill:#1c1010;fill-rule:nonzero;stroke:#fff;stroke-width:4.17px;"/><path d="M2598.26,1370.15c0,12.239 -2.976,23.235 -8.927,32.989c-5.951,9.754 -14.661,17.392 -26.13,22.913c-11.468,5.521 -25.065,8.282 -40.791,8.282c-18.853,0 -34.405,-3.773 -46.656,-11.318c-8.688,-5.43 -15.747,-12.676 -21.177,-21.74c-5.43,-9.064 -8.145,-17.875 -8.145,-26.433c-0,-4.969 1.629,-9.225 4.887,-12.768c3.258,-3.542 7.406,-5.314 12.446,-5.314c4.083,0 7.537,1.381 10.36,4.141c2.824,2.761 5.235,6.856 7.233,12.285c2.433,6.441 5.061,11.824 7.885,16.149c2.823,4.325 6.798,7.891 11.924,10.698c5.126,2.806 11.86,4.21 20.2,4.21c11.469,-0 20.787,-2.83 27.955,-8.489c7.167,-5.66 10.751,-12.722 10.751,-21.188c0,-6.717 -1.933,-12.169 -5.799,-16.356c-3.866,-4.187 -8.862,-7.385 -14.987,-9.593c-6.125,-2.209 -14.314,-4.555 -24.566,-7.04c-13.727,-3.405 -25.218,-7.385 -34.471,-11.94c-9.253,-4.555 -16.594,-10.766 -22.024,-18.634c-5.43,-7.867 -8.145,-17.644 -8.145,-29.331c-0,-11.134 2.867,-21.026 8.601,-29.676c5.734,-8.65 14.031,-15.299 24.892,-19.946c10.86,-4.647 23.632,-6.97 38.315,-6.97c11.729,-0 21.872,1.541 30.43,4.624c8.558,3.083 15.661,7.177 21.308,12.285c5.647,5.107 9.774,10.467 12.381,16.08c2.606,5.613 3.909,11.088 3.909,16.426c0,4.877 -1.629,9.271 -4.887,13.181c-3.258,3.911 -7.32,5.867 -12.185,5.867c-4.431,-0 -7.798,-1.174 -10.1,-3.52c-2.302,-2.347 -4.8,-6.188 -7.494,-11.526c-3.475,-7.637 -7.645,-13.596 -12.511,-17.874c-4.865,-4.279 -12.684,-6.419 -23.458,-6.419c-9.991,0 -18.05,2.324 -24.175,6.971c-6.125,4.647 -9.188,10.237 -9.188,16.77c0,4.049 1.043,7.546 3.128,10.491c2.085,2.944 4.953,5.475 8.602,7.591c3.649,2.117 7.341,3.773 11.077,4.969c3.736,1.197 9.905,2.945 18.506,5.245c10.773,2.669 20.526,5.614 29.257,8.834c8.732,3.221 16.161,7.132 22.286,11.733c6.125,4.601 10.903,10.421 14.335,17.461c3.432,7.039 5.148,15.666 5.148,25.88Z" style="fill:#1c1010;fill-rule:nonzero;stroke:#fff;stroke-width:4.17px;"/><path d="M2754.96,1360.49l-0,50.105c-0,7.914 -1.694,13.849 -5.083,17.806c-3.388,3.957 -7.863,5.935 -13.423,5.935c-5.387,0 -9.753,-1.978 -13.097,-5.935c-3.345,-3.957 -5.018,-9.892 -5.018,-17.806l0,-60.043c0,-9.478 -0.304,-16.84 -0.912,-22.085c-0.608,-5.245 -2.259,-9.547 -4.952,-12.906c-2.694,-3.358 -6.951,-5.038 -12.772,-5.038c-11.642,0 -19.31,4.233 -23.002,12.699c-3.693,8.466 -5.539,20.613 -5.539,36.44l0,50.933c0,7.822 -1.672,13.734 -5.017,17.737c-3.345,4.003 -7.755,6.004 -13.228,6.004c-5.387,0 -9.796,-2.001 -13.228,-6.004c-3.432,-4.003 -5.148,-9.915 -5.148,-17.737l0,-107.801c0,-7.086 1.542,-12.469 4.627,-16.15c3.084,-3.681 7.146,-5.521 12.185,-5.521c4.865,-0 8.927,1.725 12.185,5.176c3.258,3.451 4.887,8.213 4.887,14.286l0,3.589c6.169,-7.822 12.772,-13.573 19.809,-17.254c7.038,-3.681 14.857,-5.521 23.459,-5.521c8.948,0 16.638,1.886 23.067,5.659c6.429,3.773 11.729,9.478 15.899,17.116c5.995,-7.73 12.424,-13.458 19.288,-17.185c6.864,-3.727 14.466,-5.59 22.807,-5.59c9.73,0 18.115,2.024 25.152,6.073c7.037,4.049 12.294,9.846 15.769,17.392c3.041,6.81 4.561,17.53 4.561,32.161l0,73.57c0,7.914 -1.694,13.849 -5.082,17.806c-3.389,3.957 -7.863,5.935 -13.423,5.935c-5.387,0 -9.796,-2.001 -13.228,-6.004c-3.432,-4.003 -5.148,-9.915 -5.148,-17.737l-0,-63.356c-0,-8.097 -0.326,-14.585 -0.977,-19.462c-0.652,-4.877 -2.411,-8.972 -5.279,-12.285c-2.867,-3.312 -7.211,-4.969 -13.032,-4.969c-4.692,0 -9.144,1.473 -13.358,4.417c-4.214,2.945 -7.494,6.902 -9.839,11.871c-2.607,6.349 -3.91,17.576 -3.91,33.679Z" style="fill:#1c1010;fill-rule:nonzero;stroke:#fff;stroke-width:4.17px;"/><path d="M2970.7,1413.07c-8.601,7.086 -16.92,12.4 -24.957,15.943c-8.036,3.543 -17.05,5.314 -27.042,5.314c-9.122,0 -17.137,-1.909 -24.044,-5.728c-6.908,-3.819 -12.229,-8.995 -15.965,-15.529c-3.736,-6.533 -5.604,-13.618 -5.604,-21.256c0,-10.306 3.084,-19.094 9.253,-26.364c6.169,-7.269 14.64,-12.146 25.413,-14.631c2.259,-0.552 7.863,-1.794 16.812,-3.727c8.949,-1.932 16.616,-3.704 23.002,-5.314c6.386,-1.61 13.314,-3.566 20.786,-5.866c-0.434,-9.938 -2.324,-17.231 -5.669,-21.878c-3.345,-4.647 -10.274,-6.97 -20.786,-6.97c-9.036,-0 -15.835,1.334 -20.396,4.002c-4.561,2.669 -8.471,6.672 -11.729,12.009c-3.258,5.337 -5.56,8.857 -6.907,10.559c-1.347,1.703 -4.236,2.554 -8.667,2.554c-3.996,-0 -7.45,-1.357 -10.36,-4.072c-2.911,-2.715 -4.366,-6.188 -4.366,-10.421c-0,-6.626 2.215,-13.067 6.646,-19.324c4.431,-6.258 11.339,-11.411 20.722,-15.46c9.383,-4.049 21.069,-6.073 35.057,-6.073c15.639,-0 27.932,1.955 36.881,5.866c8.949,3.911 15.27,10.099 18.962,18.565c3.693,8.466 5.539,19.692 5.539,33.679c-0,8.834 -0.022,16.334 -0.065,22.499c-0.044,6.166 -0.109,13.021 -0.196,20.567c0,7.085 1.108,14.47 3.324,22.154c2.215,7.683 3.323,12.629 3.323,14.838c-0,3.865 -1.716,7.384 -5.148,10.559c-3.432,3.175 -7.32,4.762 -11.664,4.762c-3.649,0 -7.255,-1.817 -10.817,-5.452c-3.562,-3.635 -7.341,-8.903 -11.338,-15.805Zm-2.346,-54.521c-5.213,2.024 -12.793,4.164 -22.741,6.418c-9.948,2.255 -16.833,3.911 -20.656,4.969c-3.823,1.058 -7.472,3.129 -10.947,6.211c-3.476,3.083 -5.213,7.385 -5.213,12.906c-0,5.706 2.041,10.56 6.125,14.562c4.083,4.003 9.427,6.005 16.03,6.005c7.037,-0 13.531,-1.634 19.483,-4.9c5.951,-3.267 10.317,-7.477 13.097,-12.63c3.215,-5.705 4.822,-15.091 4.822,-28.158l0,-5.383Z" style="fill:#1c1010;fill-rule:nonzero;stroke:#fff;stroke-width:4.17px;"/><path d="M3082.71,1379.95l0,31.471c0,7.638 -1.694,13.366 -5.082,17.185c-3.389,3.819 -7.69,5.728 -12.902,5.728c-5.127,0 -9.34,-1.932 -12.642,-5.797c-3.301,-3.865 -4.952,-9.57 -4.952,-17.116l-0,-104.903c-0,-16.931 5.778,-25.397 17.333,-25.397c5.908,-0 10.165,1.978 12.772,5.935c2.606,3.957 4.04,9.8 4.3,17.53c4.257,-7.73 8.623,-13.573 13.098,-17.53c4.474,-3.957 10.447,-5.935 17.919,-5.935c7.472,-0 14.727,1.978 21.764,5.935c7.038,3.957 10.556,9.202 10.556,15.736c0,4.601 -1.498,8.396 -4.496,11.387c-2.997,2.991 -6.234,4.486 -9.709,4.486c-1.303,0 -4.453,-0.851 -9.448,-2.553c-4.996,-1.703 -9.405,-2.554 -13.228,-2.554c-5.213,-0 -9.47,1.449 -12.772,4.348c-3.301,2.899 -5.864,7.2 -7.689,12.906c-1.824,5.705 -3.084,12.491 -3.779,20.359c-0.695,7.868 -1.043,17.461 -1.043,28.779Z" style="fill:#1c1010;fill-rule:nonzero;stroke:#fff;stroke-width:4.17px;"/><path d="M3177.51,1284.43l3.91,-0l0,-22.637c0,-6.074 0.152,-10.836 0.456,-14.286c0.304,-3.451 1.151,-6.419 2.542,-8.903c1.39,-2.577 3.388,-4.67 5.994,-6.281c2.607,-1.61 5.517,-2.415 8.732,-2.415c4.518,-0 8.601,1.794 12.25,5.383c2.433,2.393 3.975,5.314 4.627,8.765c0.652,3.451 0.977,8.351 0.977,14.7l0,25.674l13.033,-0c5.039,-0 8.883,1.265 11.533,3.796c2.65,2.53 3.975,5.774 3.975,9.731c0,5.061 -1.89,8.603 -5.669,10.628c-3.779,2.024 -9.188,3.037 -16.225,3.037l-6.647,-0l0,69.291c0,5.889 0.196,10.421 0.587,13.595c0.391,3.175 1.433,5.752 3.128,7.73c1.694,1.979 4.452,2.968 8.275,2.968c2.085,-0 4.909,-0.391 8.471,-1.173c3.562,-0.783 6.343,-1.174 8.341,-1.174c2.867,0 5.452,1.22 7.754,3.658c2.302,2.439 3.454,5.452 3.454,9.041c-0,6.073 -3.128,10.72 -9.384,13.941c-6.255,3.221 -15.247,4.831 -26.977,4.831c-11.12,0 -19.548,-1.978 -25.282,-5.935c-5.735,-3.957 -9.492,-9.432 -11.273,-16.426c-1.781,-6.993 -2.672,-16.333 -2.672,-28.02l0,-72.327l-4.692,-0c-5.126,-0 -9.035,-1.289 -11.729,-3.865c-2.693,-2.577 -4.04,-5.844 -4.04,-9.8c0,-3.957 1.412,-7.201 4.236,-9.731c2.824,-2.531 6.929,-3.796 12.315,-3.796Z" style="fill:#1c1010;fill-rule:nonzero;stroke:#fff;stroke-width:4.17px;"/></g></svg>